<svg width="53" height="27" fill="none" xmlns="http://www.w3.org/2000/svg"><path d="M.448 14.323l9.204 11.19c.296.359.666.538 1.035.538.37 0 .74-.18 1.035-.537.592-.716.592-1.835 0-2.552l-6.69-8.146h21.587c.813 0 1.479-.806 1.479-1.79 0-.985-.666-1.791-1.479-1.791H5.032l6.69-8.146c.592-.717.592-1.836 0-2.552-.591-.716-1.515-.716-2.107 0L.411 11.727c-.554.761-.554 1.925.037 2.596z" fill="#9A9A9A"/><rect width="50" height="4.002" rx="2.001" transform="matrix(-1 0 0 1 52.685 11.045)" fill="#9A9A9A"/></svg>